<svg width="44" height="44" viewBox="0 0 44 44" fill="none" xmlns="http://www.w3.org/2000/svg"><g clip-path="url(#clip0_211_962)"><path d="M22.0001 3.66675C32.1256 3.66675 40.3334 11.8746 40.3334 22.0001C40.3334 32.1256 32.1256 40.3334 22.0001 40.3334C11.8746 40.3334 3.66675 32.1256 3.66675 22.0001C3.66675 11.8746 11.8746 3.66675 22.0001 3.66675ZM22.0001 7.33341C13.9004 7.33341 7.33341 13.9004 7.33341 22.0001C7.33341 30.0997 13.9004 36.6667 22.0001 36.6667C30.0997 36.6667 36.6667 30.0997 36.6667 22.0001C36.6667 13.9004 30.0997 7.33341 22.0001 7.33341ZM29.7771 11.6289L32.3712 14.2212L25.5439 21.0522C25.6246 21.3547 25.6667 21.6719 25.6667 22.0001C25.6667 24.0259 24.0259 25.6667 22.0001 25.6667C19.9742 25.6667 18.3334 24.0259 18.3334 22.0001C18.3334 19.9742 19.9742 18.3334 22.0001 18.3334C22.3282 18.3334 22.6454 18.3756 22.9479 18.4562L29.7789 11.6289H29.7771Z" fill="currentColor"></path><path d="M22 9.16671C23.8664 9.16671 25.6392 9.56454 27.2397 10.2814L24.3742 13.145C23.617 12.9434 22.8214 12.8334 22 12.8334C16.9382 12.8334 12.8334 16.9382 12.8334 22C12.8334 24.53 13.86 26.8217 15.5174 28.4827L12.925 31.075L12.639 30.7799C10.4867 28.4845 9.16671 25.3954 9.16671 22C9.16671 14.9124 14.9124 9.16671 22 9.16671ZM33.7187 16.7622C34.4337 18.3609 34.8334 20.1355 34.8334 22C34.8334 25.5439 33.396 28.7522 31.075 31.075L28.4827 28.4827C30.14 26.8217 31.1667 24.53 31.1667 22C31.1667 21.1787 31.0585 20.383 30.855 19.6259L33.7187 16.7622Z" fill="currentColor"></path></g><defs><clipPath id="clip0_211_962"><rect width="44" height="44" fill="white"></rect></clipPath></defs></svg>