<svg width="44" height="44" viewBox="0 0 44 44" fill="none" xmlns="http://www.w3.org/2000/svg"><g clip-path="url(#clip0_211_934)"><path d="M23.2007 4.24461L38.2241 13.2576C38.3511 13.3337 38.4562 13.4413 38.5292 13.5701C38.6022 13.6989 38.6406 13.8444 38.6406 13.9924C38.6406 14.1405 38.6022 14.286 38.5292 14.4147C38.4562 14.5435 38.3511 14.6512 38.2241 14.7272L22.3203 24.2695L6.41652 14.7272C6.28951 14.6512 6.18437 14.5435 6.11137 14.4147C6.03837 14.286 6 14.1405 6 13.9924C6 13.8444 6.03837 13.6989 6.11137 13.5701C6.18437 13.4413 6.28951 13.3337 6.41652 13.2576L21.4382 4.24461C21.7046 4.08456 22.0095 4 22.3203 4C22.6311 4 22.936 4.08456 23.2024 4.24461H23.2007Z" fill="currentColor"></path><path d="M36.1653 19.9874L38.2241 21.2224C38.3512 21.2984 38.4563 21.4061 38.5293 21.5349C38.6023 21.6637 38.6407 21.8092 38.6407 21.9572C38.6407 22.1052 38.6023 22.2507 38.5293 22.3795C38.4563 22.5083 38.3512 22.616 38.2241 22.692L22.3204 32.2343L6.41658 22.692C6.28956 22.616 6.18443 22.5083 6.11143 22.3795C6.03843 22.2507 6.00005 22.1052 6.00005 21.9572C6.00005 21.8092 6.03843 21.6637 6.11143 21.5349C6.18443 21.4061 6.28956 21.2984 6.41658 21.2224L8.47542 19.9874L22.3204 28.2947L36.1653 19.9874ZM36.1653 28.0378L38.2241 29.2728C38.3512 29.3488 38.4563 29.4565 38.5293 29.5853C38.6023 29.714 38.6407 29.8595 38.6407 30.0076C38.6407 30.1556 38.6023 30.3011 38.5293 30.4299C38.4563 30.5587 38.3512 30.6664 38.2241 30.7424L23.2025 39.7554C22.9361 39.9154 22.6311 40 22.3204 40C22.0096 40 21.7046 39.9154 21.4382 39.7554L6.41658 30.7424C6.28956 30.6664 6.18443 30.5587 6.11143 30.4299C6.03843 30.3011 6.00005 30.1556 6.00005 30.0076C6.00005 29.8595 6.03843 29.714 6.11143 29.5853C6.18443 29.4565 6.28956 29.3488 6.41658 29.2728L8.47542 28.0378L22.3204 36.3451L36.1653 28.0378Z" fill="currentColor"></path></g><defs><clipPath id="clip0_211_934"><rect width="44" height="44" fill="white"></rect></clipPath></defs></svg>