<svg width="40" height="40" viewBox="0 0 40 40" fill="none" xmlns="http://www.w3.org/2000/svg"><g clip-path="url(#clip0_211_943)"><path d="M11.2535 28.9978C11.5633 28.1197 12.1379 27.3593 12.898 26.8215C13.6581 26.2837 14.5663 25.9949 15.4974 25.9949C16.4286 25.9949 17.3368 26.2837 18.0969 26.8215C18.857 27.3593 19.4316 28.1197 19.7414 28.9978H34.9927V31.9971H19.7414C19.4316 32.8751 18.857 33.6355 18.0969 34.1733C17.3368 34.7112 16.4286 35 15.4974 35C14.5663 35 13.6581 34.7112 12.898 34.1733C12.1379 33.6355 11.5633 32.8751 11.2535 31.9971H5V28.9978H11.2535ZM20.2513 18.5004C20.5611 17.6223 21.1357 16.8619 21.8958 16.3241C22.6559 15.7862 23.5641 15.4974 24.4952 15.4974C25.4264 15.4974 26.3346 15.7862 27.0947 16.3241C27.8548 16.8619 28.4294 17.6223 28.7392 18.5004H34.9927V21.4996H28.7392C28.4294 22.3777 27.8548 23.1381 27.0947 23.6759C26.3346 24.2138 25.4264 24.5026 24.4952 24.5026C23.5641 24.5026 22.6559 24.2138 21.8958 23.6759C21.1357 23.1381 20.5611 22.3777 20.2513 21.4996H5V18.5004H20.2513ZM11.2535 8.00294C11.5633 7.12486 12.1379 6.36449 12.898 5.82666C13.6581 5.28882 14.5663 5 15.4974 5C16.4286 5 17.3368 5.28882 18.0969 5.82666C18.857 6.36449 19.4316 7.12486 19.7414 8.00294H34.9927V11.0022H19.7414C19.4316 11.8803 18.857 12.6407 18.0969 13.1785C17.3368 13.7163 16.4286 14.0051 15.4974 14.0051C14.5663 14.0051 13.6581 13.7163 12.898 13.1785C12.1379 12.6407 11.5633 11.8803 11.2535 11.0022H5V8.00294H11.2535Z" fill="currentColor"></path></g><defs><clipPath id="clip0_211_943"><rect width="40" height="40" fill="white"></rect></clipPath></defs></svg>